HIERARCHY
ROOT hip
{
  OFFSET 0 90.174 2.4664
  CHANNELS 6 Xposition Yposition Zposition Zrotation Xrotation Yrotation
  JOINT abdomen
  {
    OFFSET 0 -1.186 -1.5018
    CHANNELS 6 Xposition Yposition Zposition Zrotation Xrotation Yrotation
    JOINT abdomen2
    {
      OFFSET 0 9.964 0.2134
      CHANNELS 6 Xposition Yposition Zposition Zrotation Xrotation Yrotation
      JOINT chest
      {
        OFFSET 0 13.134 -3.2573
        CHANNELS 6 Xposition Yposition Zposition Zrotation Xrotation Yrotation
        JOINT neck
        {
          OFFSET 0 20.686 -1.6905
          CHANNELS 6 Xposition Yposition Zposition Zrotation Xrotation Yrotation
          JOINT head
          {
            OFFSET 0 7.238 -0.1237
            CHANNELS 6 Xposition Yposition Zposition Zrotation Xrotation Yrotation
            End Site
            {
              OFFSET 0 0 0
            }
          }
        }
        JOINT lCollar
        {
          OFFSET 1.7069 20.075 5.0056
          CHANNELS 6 Xposition Yposition Zposition Zrotation Xrotation Yrotation
          JOINT lShldr
          {
            OFFSET 13.6458 -0.047 -4.849
            CHANNELS 6 Xposition Yposition Zposition Zrotation Xrotation Yrotation
            JOINT lForeArm
            {
              OFFSET 28.3255 -0.9759 2.2888
              CHANNELS 6 Xposition Yposition Zposition Zrotation Xrotation Yrotation
              JOINT lHand
              {
                OFFSET 22.1583 -0.53 10.8316
                CHANNELS 6 Xposition Yposition Zposition Zrotation Xrotation Yrotation
                JOINT lThumb1
                {
                  OFFSET 0.786 0.112 2.5817
                  CHANNELS 6 Xposition Yposition Zposition Zrotation Xrotation Yrotation
                  JOINT lThumb2
                  {
                    OFFSET 0.3601 -0.878 4.2331
                    CHANNELS 6 Xposition Yposition Zposition Zrotation Xrotation Yrotation
                    JOINT lThumb2_End
                    {
                      OFFSET 1.8127 -1.216 2.2227
                      CHANNELS 6 Xposition Yposition Zposition Zrotation Xrotation Yrotation
                      End Site
                      {
                        OFFSET 0.0181 -0.0122 0.0222
                      }
                    }
                  }
                }
                JOINT lCarpal1
                {
                  OFFSET 0.9571 1.114 1.7695
                  CHANNELS 6 Xposition Yposition Zposition Zrotation Xrotation Yrotation
                  JOINT lIndex1
                  {
                    OFFSET 4.1246 0.487 4.1451
                    CHANNELS 6 Xposition Yposition Zposition Zrotation Xrotation Yrotation
                    JOINT lIndex2
                    {
                      OFFSET 3.4052 -1.454 2.7682
                      CHANNELS 6 Xposition Yposition Zposition Zrotation Xrotation Yrotation
                      JOINT lIndex2_End
                      {
                        OFFSET 1.4531 -1.795 1.2713
                        CHANNELS 6 Xposition Yposition Zposition Zrotation Xrotation Yrotation
                        End Site
                        {
                          OFFSET 0.0145 -0.0179 0.0127
                        }
                      }
                    }
                  }
                  JOINT lMid1
                  {
                    OFFSET 5.6954 0.21 2.1184
                    CHANNELS 6 Xposition Yposition Zposition Zrotation Xrotation Yrotation
                    JOINT lMid2
                    {
                      OFFSET 3.9766 -1.54 2.3863
                      CHANNELS 6 Xposition Yposition Zposition Zrotation Xrotation Yrotation
                      JOINT lMid2_End
                      {
                        OFFSET 1.4042 -1.926 1.125
                        CHANNELS 6 Xposition Yposition Zposition Zrotation Xrotation Yrotation
                        End Site
                        {
                          OFFSET 0.014 -0.0193 0.0113
                        }
                      }
                    }
                  }
                }
                JOINT lCarpal2
                {
                  OFFSET 2.0956 0.66 -0.3894
                  CHANNELS 6 Xposition Yposition Zposition Zrotation Xrotation Yrotation
                  JOINT lRing1
                  {
                    OFFSET 5.0395 -0.09 2.4971
                    CHANNELS 6 Xposition Yposition Zposition Zrotation Xrotation Yrotation
                    JOINT lRing2
                    {
                      OFFSET 3.7921 -1.552 1.4806
                      CHANNELS 6 Xposition Yposition Zposition Zrotation Xrotation Yrotation
                      JOINT lRing2_End
                      {
                        OFFSET 1.4655 -1.808 0.9609
                        CHANNELS 6 Xposition Yposition Zposition Zrotation Xrotation Yrotation
                        End Site
                        {
                          OFFSET 0.0147 -0.0181 0.0096
                        }
                      }
                    }
                  }
                  JOINT lPinky1
                  {
                    OFFSET 4.9141 -1.269 0.3591
                    CHANNELS 6 Xposition Yposition Zposition Zrotation Xrotation Yrotation
                    JOINT lPinky2
                    {
                      OFFSET 3.1477 -1.685 0.8462
                      CHANNELS 6 Xposition Yposition Zposition Zrotation Xrotation Yrotation
                      JOINT lPinky2_End
                      {
                        OFFSET 0.8055 -1.585 0.7955
                        CHANNELS 6 Xposition Yposition Zposition Zrotation Xrotation Yrotation
                        End Site
                        {
                          OFFSET 0.0081 -0.0158 0.008
                        }
                      }
                    }
                  }
                }
              }
            }
          }
        }
        JOINT rCollar
        {
          OFFSET -1.7069 20.075 5.0056
          CHANNELS 6 Xposition Yposition Zposition Zrotation Xrotation Yrotation
          JOINT rShldr
          {
            OFFSET -13.6458 -0.047 -4.849
            CHANNELS 6 Xposition Yposition Zposition Zrotation Xrotation Yrotation
            JOINT rForeArm
            {
              OFFSET -28.3255 -0.9759 2.2888
              CHANNELS 6 Xposition Yposition Zposition Zrotation Xrotation Yrotation
              JOINT rHand
              {
                OFFSET -22.1583 -0.53 10.8316
                CHANNELS 6 Xposition Yposition Zposition Zrotation Xrotation Yrotation
                JOINT rThumb1
                {
                  OFFSET -0.786 0.112 2.5817
                  CHANNELS 6 Xposition Yposition Zposition Zrotation Xrotation Yrotation
                  JOINT rThumb2
                  {
                    OFFSET -0.3601 -0.878 4.2331
                    CHANNELS 6 Xposition Yposition Zposition Zrotation Xrotation Yrotation
                    JOINT rThumb2_End
                    {
                      OFFSET -1.8127 -1.216 2.2227
                      CHANNELS 6 Xposition Yposition Zposition Zrotation Xrotation Yrotation
                      End Site
                      {
                        OFFSET -0.0181 -0.0122 0.0222
                      }
                    }
                  }
                }
                JOINT rCarpal1
                {
                  OFFSET -0.9571 1.114 1.7695
                  CHANNELS 6 Xposition Yposition Zposition Zrotation Xrotation Yrotation
                  JOINT rIndex1
                  {
                    OFFSET -4.1246 0.487 4.1451
                    CHANNELS 6 Xposition Yposition Zposition Zrotation Xrotation Yrotation
                    JOINT rIndex2
                    {
                      OFFSET -3.4052 -1.454 2.7682
                      CHANNELS 6 Xposition Yposition Zposition Zrotation Xrotation Yrotation
                      JOINT rIndex2_End
                      {
                        OFFSET -1.4531 -1.795 1.2713
                        CHANNELS 6 Xposition Yposition Zposition Zrotation Xrotation Yrotation
                        End Site
                        {
                          OFFSET -0.0145 -0.018 0.0127
                        }
                      }
                    }
                  }
                  JOINT rMid1
                  {
                    OFFSET -5.6954 0.21 2.1184
                    CHANNELS 6 Xposition Yposition Zposition Zrotation Xrotation Yrotation
                    JOINT rMid2
                    {
                      OFFSET -3.9766 -1.54 2.3863
                      CHANNELS 6 Xposition Yposition Zposition Zrotation Xrotation Yrotation
                      JOINT rMid2_End
                      {
                        OFFSET -1.4042 -1.926 1.125
                        CHANNELS 6 Xposition Yposition Zposition Zrotation Xrotation Yrotation
                        End Site
                        {
                          OFFSET -0.014 -0.0193 0.0113
                        }
                      }
                    }
                  }
                }
                JOINT rCarpal2
                {
                  OFFSET -2.0956 0.66 -0.3894
                  CHANNELS 6 Xposition Yposition Zposition Zrotation Xrotation Yrotation
                  JOINT rRing1
                  {
                    OFFSET -5.0395 -0.09 2.4971
                    CHANNELS 6 Xposition Yposition Zposition Zrotation Xrotation Yrotation
                    JOINT rRing2
                    {
                      OFFSET -3.7921 -1.552 1.4806
                      CHANNELS 6 Xposition Yposition Zposition Zrotation Xrotation Yrotation
                      JOINT rRing2_End
                      {
                        OFFSET -1.4655 -1.808 0.9609
                        CHANNELS 6 Xposition Yposition Zposition Zrotation Xrotation Yrotation
                        End Site
                        {
                          OFFSET -0.0147 -0.0181 0.0096
                        }
                      }
                    }
                  }
                  JOINT rPinky1
                  {
                    OFFSET -4.9141 -1.269 0.3592
                    CHANNELS 6 Xposition Yposition Zposition Zrotation Xrotation Yrotation
                    JOINT rPinky2
                    {
                      OFFSET -3.1477 -1.685 0.8462
                      CHANNELS 6 Xposition Yposition Zposition Zrotation Xrotation Yrotation
                      JOINT rPinky2_End
                      {
                        OFFSET -0.8055 -1.585 0.7955
                        CHANNELS 6 Xposition Yposition Zposition Zrotation Xrotation Yrotation
                        End Site
                        {
                          OFFSET -0.0081 -0.0158 0.008
                        }
                      }
                    }
                  }
                }
              }
            }
          }
        }
      }
    }
  }
  JOINT lThigh
  {
    OFFSET 8.367 -8.2066 0.5982
    CHANNELS 6 Xposition Yposition Zposition Zrotation Xrotation Yrotation
    JOINT lShin
    {
      OFFSET 2.1923 -43.463 -0.4932
      CHANNELS 6 Xposition Yposition Zposition Zrotation Xrotation Yrotation
      JOINT lFoot
      {
        OFFSET 0.7333 -45.8593 -2.6451
        CHANNELS 6 Xposition Yposition Zposition Zrotation Xrotation Yrotation
        End Site
        {
          OFFSET 2.6618 -4.2699 12.3931
        }
      }
    }
  }
  JOINT rThigh
  {
    OFFSET -8.367 -8.2066 0.5982
    CHANNELS 6 Xposition Yposition Zposition Zrotation Xrotation Yrotation
    JOINT rShin
    {
      OFFSET -2.1923 -43.463 -0.4931
      CHANNELS 6 Xposition Yposition Zposition Zrotation Xrotation Yrotation
      JOINT rFoot
      {
        OFFSET -0.7333 -45.8593 -2.6451
        CHANNELS 6 Xposition Yposition Zposition Zrotation Xrotation Yrotation
        End Site
        {
          OFFSET -2.6618 -4.2699 12.3931
        }
      }
    }
  }
}
MOTION
Frames:	4
Frame Time:	0.0333333
-0.000402108 17.0831 60.1244 -0.0131249 -71.0095 179.991 0 -1.186 -1.5018 -0.304065 1.52503 -0.114551 0 9.964 0.2134 -0.605399 3.05064 -0.221118 0 13.134 -3.2573 -0.605399 3.05062 -0.221118 -3.33067e-016 20.686 -1.6905 -1.8923e-005 -15.4579 -5.51982e-006 1.11022e-016 7.238 -0.1237 -0.0603056 -22.7924 -0.024822 1.7069 20.075 5.0056 24.0529 16.5256 -13.6331 13.6458 -0.047 -4.849 -37.2122 -51.6116 -38.2523 28.3255 -0.9759 2.2888 -22.1208 -29.5656 -101.174 22.1583 -0.53 10.8316 12.0686 9.40928 -12.0908 0.786 0.112 2.5817 9.22743e-007 1.30573e-006 -4.46403e-007 0.3601 -0.878 4.2331 9.22743e-007 1.30573e-006 -4.46403e-007 1.8127 -1.216 2.2227 -1.59028e-015 6.75868e-015 -0 0.9571 1.114 1.7695 3.18055e-015 1.78906e-015 3.18055e-015 4.1246 0.487 4.1451 9.22743e-007 1.30573e-006 -4.46403e-007 3.4052 -1.454 2.7682 9.22743e-007 1.30573e-006 -4.46403e-007 1.4531 -1.795 1.2713 7.95139e-016 -5.76476e-015 -3.18055e-015 5.6954 0.21 2.1184 9.22743e-007 1.30573e-006 -4.46403e-007 3.9766 -1.54 2.3863 9.22743e-007 1.30573e-006 -4.46403e-007 1.4042 -1.926 1.125 7.95139e-016 -5.76476e-015 -3.18055e-015 2.0956 0.66 -0.3894 3.18055e-015 1.78906e-015 3.18055e-015 5.0395 -0.09 2.4971 9.22743e-007 1.30573e-006 -4.46403e-007 3.7921 -1.552 1.4806 9.22743e-007 1.30573e-006 -4.46403e-007 1.4655 -1.808 0.9609 7.95139e-016 -5.76476e-015 -3.18055e-015 4.9141 -1.269 0.3591 9.22743e-007 1.30573e-006 -4.46403e-007 3.1477 -1.685 0.8462 9.22743e-007 1.30573e-006 -4.46403e-007 0.8055 -1.585 0.7955 7.95139e-016 -5.76476e-015 -3.18055e-015 -1.7069 20.075 5.0056 -24.9386 16.4459 14.3249 -13.6458 -0.047 -4.849 40.5726 -51.329 39.509 -28.3255 -0.9759 2.2888 22.0438 -31.4965 100.143 -22.1583 -0.53 10.8316 -19.2538 -6.24761 11.1748 -0.786 0.112 2.5817 -2.23614e-007 2.23577e-008 -4.60478e-006 -0.3601 -0.878 4.2331 -2.86904e-031 5.1684e-015 3.18055e-015 -1.8127 -1.216 2.2227 -5.02667e-006 -3.89402e-006 3.30693e-006 -0.9571 1.114 1.7695 -1.98785e-015 9.93923e-017 -0 -4.1246 0.487 4.1451 -2.23614e-007 2.23577e-008 -4.60478e-006 -3.4052 -1.454 2.7682 -0 -4.87022e-015 -0 -1.4531 -1.795 1.2713 -5.02667e-006 -3.89402e-006 3.30693e-006 -5.6954 0.21 2.1184 -2.23614e-007 2.23577e-008 -4.60478e-006 -3.9766 -1.54 2.3863 -0 -4.87022e-015 -0 -1.4042 -1.926 1.125 -5.02667e-006 -3.89402e-006 3.30693e-006 -2.0956 0.66 -0.3894 -1.98785e-015 9.93923e-017 -0 -5.0395 -0.09 2.4971 -2.23614e-007 2.23577e-008 -4.60478e-006 -3.7921 -1.552 1.4806 -0 -4.87022e-015 -0 -1.4655 -1.808 0.9609 -5.02667e-006 -3.89402e-006 3.30693e-006 -4.9141 -1.269 0.3592 -2.23614e-007 2.23577e-008 -4.60478e-006 -3.1477 -1.685 0.8462 -0 -4.87022e-015 -0 -0.8055 -1.585 0.7955 -5.02667e-006 -3.89402e-006 3.30693e-006 8.367 -8.2066 0.5982 109.637 -34.116 97.8611 2.1923 -43.463 -0.4932 -177.818 48.0193 -173.506 0.7333 -45.8593 -2.6451 10.2026 26.6783 4.55197 -8.367 -8.2066 0.5982 -109.637 -34.0931 -97.8652 -2.1923 -43.463 -0.4931 177.846 48.019 173.47 -0.7333 -45.8593 -2.6451 -10.2128 26.6815 -4.53855 
-0.000402071 17.096 60.2163 -0.0131249 -71.0095 179.991 0 -1.186 -1.5018 -0.304215 1.55835 -0.114008 2.77556e-017 9.964 0.2134 -0.605662 3.11725 -0.219857 0 13.134 -3.2573 -0.605662 3.11725 -0.219857 2.22045e-016 20.686 -1.6905 -2.97884e-005 -15.7575 -1.01178e-005 0 7.238 -0.1237 -0.0604744 -23.0922 -0.0251477 1.7069 20.075 5.0056 24.1429 16.2437 -13.3744 13.6458 -0.047 -4.849 -37.2122 -51.6116 -38.2523 28.3255 -0.9759 2.2888 -22.1208 -29.5656 -101.174 22.1583 -0.53 10.8316 12.1195 9.28794 -11.8937 0.786 0.112 2.5817 2.38542e-015 4.96962e-015 -6.36111e-015 0.3601 -0.878 4.2331 1.97764e-007 3.11513e-006 8.08652e-006 1.8127 -1.216 2.2227 0 1.68967e-014 -0 0.9571 1.114 1.7695 1.59028e-015 4.37326e-015 -0 4.1246 0.487 4.1451 -3.97569e-015 4.37326e-015 3.18055e-015 3.4052 -1.454 2.7682 1.97764e-007 3.11513e-006 8.08652e-006 1.4531 -1.795 1.2713 2.38542e-015 9.54166e-015 3.18055e-015 5.6954 0.21 2.1184 -3.97569e-015 4.37326e-015 3.18055e-015 3.9766 -1.54 2.3863 1.97764e-007 3.11513e-006 8.08652e-006 1.4042 -1.926 1.125 2.38542e-015 9.54166e-015 3.18055e-015 2.0956 0.66 -0.3894 1.59028e-015 4.37326e-015 -0 5.0395 -0.09 2.4971 -3.97569e-015 4.37326e-015 3.18055e-015 3.7921 -1.552 1.4806 1.97764e-007 3.11513e-006 8.08652e-006 1.4655 -1.808 0.9609 2.38542e-015 9.54166e-015 3.18055e-015 4.9141 -1.269 0.3591 -3.97569e-015 4.37326e-015 3.18055e-015 3.1477 -1.685 0.8462 1.97764e-007 3.11513e-006 8.08652e-006 0.8055 -1.585 0.7955 2.38542e-015 9.54166e-015 3.18055e-015 -1.7069 20.075 5.0056 -25.0043 16.1691 14.0463 -13.6458 -0.047 -4.849 40.6362 -51.2262 39.7186 -28.3255 -0.9759 2.2888 22.0438 -31.4965 100.143 -22.1583 -0.53 10.8316 -19.3421 -6.34333 10.9638 -0.786 0.112 2.5817 -2.30709e-007 1.657e-008 -4.60295e-006 -0.3601 -0.878 4.2331 -3.97569e-016 -5.26779e-015 -0 -1.8127 -1.216 2.2227 -1.87039e-030 -1.12313e-014 -9.54166e-015 -0.9571 1.114 1.7695 1.59028e-015 -5.96354e-016 3.18055e-015 -4.1246 0.487 4.1451 -2.30709e-007 1.657e-008 -4.60295e-006 -3.4052 -1.454 2.7682 3.97569e-016 -1.88845e-015 -3.18055e-015 -1.4531 -1.795 1.2713 7.95139e-016 -8.24956e-015 -3.18055e-015 -5.6954 0.21 2.1184 -2.30709e-007 1.657e-008 -4.60295e-006 -3.9766 -1.54 2.3863 3.97569e-016 -1.88845e-015 -3.18055e-015 -1.4042 -1.926 1.125 7.95139e-016 -8.24956e-015 -3.18055e-015 -2.0956 0.66 -0.3894 1.59028e-015 -5.96354e-016 3.18055e-015 -5.0395 -0.09 2.4971 -2.30709e-007 1.657e-008 -4.60295e-006 -3.7921 -1.552 1.4806 3.97569e-016 -1.88845e-015 -3.18055e-015 -1.4655 -1.808 0.9609 7.95139e-016 -8.24956e-015 -3.18055e-015 -4.9141 -1.269 0.3592 -2.30709e-007 1.657e-008 -4.60295e-006 -3.1477 -1.685 0.8462 3.97569e-016 -1.88845e-015 -3.18055e-015 -0.8055 -1.585 0.7955 7.95139e-016 -8.24956e-015 -3.18055e-015 8.367 -8.2066 0.5982 109.827 -34.137 97.9936 2.1923 -43.463 -0.4932 -177.819 48.0246 -173.496 0.7333 -45.8593 -2.6451 10.2082 26.6664 4.55731 -8.367 -8.2066 0.5982 -109.827 -34.1149 -97.9977 -2.1923 -43.463 -0.4931 177.847 48.0243 173.46 -0.7333 -45.8593 -2.6451 -10.2185 26.6697 -4.54392 
-0.000398981 17.109 60.3082 -0.0131249 -71.0095 179.991 0 -1.186 -1.5018 -0.304369 1.59169 -0.113468 -5.55112e-017 9.964 0.2134 -0.605934 3.18394 -0.218598 0 13.134 -3.2573 -0.605935 3.18395 -0.218598 0 20.686 -1.6905 -8.43877e-006 -16.0577 -2.44634e-006 -1.11022e-016 7.238 -0.1237 -0.0606451 -23.3921 -0.0254749 1.7069 20.075 5.0056 24.2342 15.962 -13.1155 13.6458 -0.047 -4.849 -37.2122 -51.6116 -38.2522 28.3255 -0.9759 2.2888 -22.1208 -29.5656 -101.174 22.1583 -0.53 10.8316 12.1709 9.16678 -11.6965 0.786 0.112 2.5817 -3.83579e-006 2.35492e-006 -1.27187e-006 0.3601 -0.878 4.2331 3.83579e-006 -2.35492e-006 1.27187e-006 1.8127 -1.216 2.2227 -3.83579e-006 2.35492e-006 -1.27187e-006 0.9571 1.114 1.7695 2.38542e-015 -9.93923e-015 -3.18055e-015 4.1246 0.487 4.1451 -3.83579e-006 2.35492e-006 -1.27187e-006 3.4052 -1.454 2.7682 3.83579e-006 -2.35492e-006 1.27187e-006 1.4531 -1.795 1.2713 -3.83579e-006 2.35492e-006 -1.27187e-006 5.6954 0.21 2.1184 -3.83579e-006 2.35492e-006 -1.27187e-006 3.9766 -1.54 2.3863 3.83579e-006 -2.35492e-006 1.27187e-006 1.4042 -1.926 1.125 -3.83579e-006 2.35492e-006 -1.27187e-006 2.0956 0.66 -0.3894 2.38542e-015 -9.93923e-015 -3.18055e-015 5.0395 -0.09 2.4971 -3.83579e-006 2.35492e-006 -1.27187e-006 3.7921 -1.552 1.4806 3.83579e-006 -2.35492e-006 1.27187e-006 1.4655 -1.808 0.9609 -3.83579e-006 2.35492e-006 -1.27187e-006 4.9141 -1.269 0.3591 -3.83579e-006 2.35492e-006 -1.27187e-006 3.1477 -1.685 0.8462 3.83579e-006 -2.35492e-006 1.27187e-006 0.8055 -1.585 0.7955 -3.83579e-006 2.35492e-006 -1.27187e-006 -1.7069 20.075 5.0056 -25.0712 15.8923 13.7676 -13.6458 -0.047 -4.849 40.6991 -51.1232 39.9274 -28.3255 -0.9759 2.2888 22.0438 -31.4965 100.143 -22.1583 -0.53 10.8316 -19.4307 -6.43872 10.7527 -0.786 0.112 2.5817 -1.90225e-006 -1.62625e-006 4.02827e-006 -0.3601 -0.878 4.2331 3.98258e-006 -7.72874e-007 -7.40226e-007 -1.8127 -1.216 2.2227 -4.23102e-006 5.45834e-007 2.22903e-006 -0.9571 1.114 1.7695 1.98785e-015 -4.96962e-016 -3.18055e-015 -4.1246 0.487 4.1451 -1.90225e-006 -1.62625e-006 4.02827e-006 -3.4052 -1.454 2.7682 3.98258e-006 -7.72874e-007 -7.40226e-007 -1.4531 -1.795 1.2713 -4.23102e-006 5.45834e-007 2.22903e-006 -5.6954 0.21 2.1184 -1.90225e-006 -1.62625e-006 4.02827e-006 -3.9766 -1.54 2.3863 3.98258e-006 -7.72874e-007 -7.40226e-007 -1.4042 -1.926 1.125 -4.23102e-006 5.45834e-007 2.22903e-006 -2.0956 0.66 -0.3894 1.98785e-015 -4.96962e-016 -3.18055e-015 -5.0395 -0.09 2.4971 -1.90225e-006 -1.62625e-006 4.02827e-006 -3.7921 -1.552 1.4806 3.98258e-006 -7.72874e-007 -7.40226e-007 -1.4655 -1.808 0.9609 -4.23102e-006 5.45834e-007 2.22903e-006 -4.9141 -1.269 0.3592 -1.90225e-006 -1.62625e-006 4.02827e-006 -3.1477 -1.685 0.8462 3.98258e-006 -7.72874e-007 -7.40226e-007 -0.8055 -1.585 0.7955 -4.23102e-006 5.45834e-007 2.22903e-006 8.367 -8.2066 0.5982 110.018 -34.1577 98.1263 2.1923 -43.463 -0.4932 -177.82 48.0298 -173.486 0.7333 -45.8593 -2.6451 10.214 26.6547 4.56263 -8.367 -8.2066 0.5982 -110.018 -34.1364 -98.1304 -2.1923 -43.463 -0.4931 177.848 48.0295 173.45 -0.7333 -45.8593 -2.6451 -10.2242 26.6578 -4.54927 
-0.000394279 17.1221 60.4002 -0.0131249 -71.0095 179.991 0 -1.186 -1.5018 -0.304526 1.62505 -0.112927 0 9.964 0.2134 -0.606212 3.25068 -0.21734 0 13.134 -3.2573 -0.606212 3.25066 -0.21734 -1.11022e-016 20.686 -1.6905 8.79994e-006 -16.3574 3.99806e-006 -2.22045e-016 7.238 -0.1237 -0.0608179 -23.6921 -0.0258038 1.7069 20.075 5.0056 24.3266 15.6805 -12.8564 13.6458 -0.047 -4.849 -37.2122 -51.6116 -38.2522 28.3255 -0.9759 2.2888 -22.1208 -29.5656 -101.174 22.1583 -0.53 10.8316 12.2227 9.04576 -11.4993 0.786 0.112 2.5817 -2.61141e-006 1.84812e-006 7.91569e-007 0.3601 -0.878 4.2331 -2.61141e-006 1.84812e-006 7.91569e-007 1.8127 -1.216 2.2227 -2.61141e-006 1.84812e-006 7.91569e-007 0.9571 1.114 1.7695 2.38542e-015 -7.95139e-015 -6.36111e-015 4.1246 0.487 4.1451 -2.61141e-006 1.84812e-006 7.91569e-007 3.4052 -1.454 2.7682 -2.61141e-006 1.84812e-006 7.91569e-007 1.4531 -1.795 1.2713 -2.61141e-006 1.84812e-006 7.91569e-007 5.6954 0.21 2.1184 -2.61141e-006 1.84812e-006 7.91569e-007 3.9766 -1.54 2.3863 -2.61141e-006 1.84812e-006 7.91569e-007 1.4042 -1.926 1.125 -2.61141e-006 1.84812e-006 7.91569e-007 2.0956 0.66 -0.3894 2.38542e-015 -7.95139e-015 -6.36111e-015 5.0395 -0.09 2.4971 -2.61141e-006 1.84812e-006 7.91569e-007 3.7921 -1.552 1.4806 -2.61141e-006 1.84812e-006 7.91569e-007 1.4655 -1.808 0.9609 -2.61141e-006 1.84812e-006 7.91569e-007 4.9141 -1.269 0.3591 -2.61141e-006 1.84812e-006 7.91569e-007 3.1477 -1.685 0.8462 -2.61141e-006 1.84812e-006 7.91569e-007 0.8055 -1.585 0.7955 -2.61141e-006 1.84812e-006 7.91569e-007 -1.7069 20.075 5.0056 -25.1395 15.6157 13.4888 -13.6458 -0.047 -4.849 40.7613 -51.02 40.1357 -28.3255 -0.9759 2.2888 22.0438 -31.4965 100.143 -22.1583 -0.53 10.8316 -19.5198 -6.53381 10.5413 -0.786 0.112 2.5817 5.27387e-006 4.16126e-006 -4.8194e-006 -0.3601 -0.878 4.2331 2.38748e-006 1.84067e-006 -9.17962e-007 -1.8127 -1.216 2.2227 2.38748e-006 1.84067e-006 -9.17962e-007 -0.9571 1.114 1.7695 -1.59028e-015 9.54166e-015 -0 -4.1246 0.487 4.1451 5.27387e-006 4.16126e-006 -4.8194e-006 -3.4052 -1.454 2.7682 2.38748e-006 1.84067e-006 -9.17962e-007 -1.4531 -1.795 1.2713 2.38748e-006 1.84067e-006 -9.17962e-007 -5.6954 0.21 2.1184 5.27387e-006 4.16126e-006 -4.8194e-006 -3.9766 -1.54 2.3863 2.38748e-006 1.84067e-006 -9.17962e-007 -1.4042 -1.926 1.125 2.38748e-006 1.84067e-006 -9.17962e-007 -2.0956 0.66 -0.3894 -1.59028e-015 9.54166e-015 -0 -5.0395 -0.09 2.4971 5.27387e-006 4.16126e-006 -4.8194e-006 -3.7921 -1.552 1.4806 2.38748e-006 1.84067e-006 -9.17962e-007 -1.4655 -1.808 0.9609 2.38748e-006 1.84067e-006 -9.17962e-007 -4.9141 -1.269 0.3592 5.27387e-006 4.16126e-006 -4.8194e-006 -3.1477 -1.685 0.8462 2.38748e-006 1.84067e-006 -9.17962e-007 -0.8055 -1.585 0.7955 2.38748e-006 1.84067e-006 -9.17962e-007 8.367 -8.2066 0.5982 110.208 -34.1781 98.2593 2.1923 -43.463 -0.4932 -177.821 48.035 -173.477 0.7333 -45.8593 -2.6451 10.2196 26.6429 4.56803 -8.367 -8.2066 0.5982 -110.209 -34.1575 -98.2634 -2.1923 -43.463 -0.4931 177.849 48.0348 173.44 -0.7333 -45.8593 -2.6451 -10.23 26.6461 -4.55463 
